<svg xmlns="http://www.w3.org/2000/svg" xmlns:xlink="http://www.w3.org/1999/xlink" width="200" zoomAndPan="magnify" viewBox="0 0 150 44.999999" height="60" preserveAspectRatio="xMidYMid meet" version="1.0"><defs><g/><clipPath id="4862478f62"><path d="M 3 7.050781 L 106.992188 7.050781 L 106.992188 25.050781 L 3 25.050781 Z M 3 7.050781 " clip-rule="nonzero"/></clipPath><clipPath id="d28dc885cf"><path d="M 67.25 19.292969 C 67.25 20.113281 66.585938 20.769531 65.769531 20.769531 L 42.273438 20.769531 L 42.273438 17.816406 L 65.777344 17.816406 C 66.59375 17.820312 67.25 18.480469 67.25 19.292969 M 42.273438 11.164062 L 65.769531 11.164062 C 66.589844 11.164062 67.25 11.773438 67.25 12.523438 C 67.25 13.230469 66.660156 13.804688 65.914062 13.871094 L 42.273438 13.871094 Z M 32.082031 19.40625 C 32.082031 20.15625 31.417969 20.765625 30.605469 20.765625 L 6.753906 20.765625 L 6.753906 11.167969 L 30.605469 11.167969 C 31.421875 11.167969 32.082031 11.777344 32.082031 12.527344 Z M 106.949219 7.050781 L 103.015625 7.050781 L 98.433594 13.867188 L 77.59375 13.867188 L 77.59375 7.050781 L 73.882812 7.050781 L 73.882812 13.867188 L 71.09375 13.867188 C 71.40625 13.453125 71.628906 12.988281 71.660156 12.503906 L 71.632812 10.871094 C 71.632812 8.371094 70.683594 7.125 68.777344 7.125 L 38.601562 7.125 L 38.601562 13.867188 L 36.03125 13.867188 L 36.03125 10.910156 C 36.03125 8.410156 35.078125 7.164062 33.171875 7.164062 L 3 7.164062 L 3 25.046875 L 33.175781 25.046875 C 35.078125 25.046875 36.035156 23.601562 36.035156 20.707031 L 36.035156 17.816406 L 38.605469 17.816406 L 38.605469 25.046875 L 68.445312 25.046875 L 68.925781 25.011719 C 70.734375 25.035156 71.621094 23.945312 71.597656 21.742188 L 71.632812 19.664062 C 71.632812 19.234375 71.382812 18.53125 71.003906 17.8125 L 73.882812 17.8125 L 73.882812 25.046875 L 77.59375 25.046875 L 77.59375 17.816406 L 98.355469 17.816406 L 103.015625 25.046875 L 106.949219 25.046875 L 101.128906 15.882812 Z M 106.949219 7.050781 " clip-rule="nonzero"/></clipPath><clipPath id="9ee2dd0034"><path d="M 0 0.0507812 L 103.992188 0.0507812 L 103.992188 18.050781 L 0 18.050781 Z M 0 0.0507812 " clip-rule="nonzero"/></clipPath><clipPath id="bb77268612"><path d="M 64.25 12.292969 C 64.25 13.113281 63.585938 13.769531 62.769531 13.769531 L 39.273438 13.769531 L 39.273438 10.816406 L 62.777344 10.816406 C 63.59375 10.820312 64.25 11.480469 64.25 12.292969 M 39.273438 4.164062 L 62.769531 4.164062 C 63.589844 4.164062 64.25 4.773438 64.25 5.523438 C 64.25 6.230469 63.660156 6.804688 62.914062 6.871094 L 39.273438 6.871094 Z M 29.082031 12.40625 C 29.082031 13.15625 28.417969 13.765625 27.605469 13.765625 L 3.753906 13.765625 L 3.753906 4.167969 L 27.605469 4.167969 C 28.421875 4.167969 29.082031 4.777344 29.082031 5.527344 Z M 103.949219 0.0507812 L 100.015625 0.0507812 L 95.433594 6.867188 L 74.59375 6.867188 L 74.59375 0.0507812 L 70.882812 0.0507812 L 70.882812 6.867188 L 68.09375 6.867188 C 68.40625 6.453125 68.628906 5.988281 68.660156 5.503906 L 68.632812 3.871094 C 68.632812 1.371094 67.683594 0.125 65.777344 0.125 L 35.601562 0.125 L 35.601562 6.867188 L 33.03125 6.867188 L 33.03125 3.910156 C 33.03125 1.410156 32.078125 0.164062 30.171875 0.164062 L 0 0.164062 L 0 18.046875 L 30.175781 18.046875 C 32.078125 18.046875 33.035156 16.601562 33.035156 13.707031 L 33.035156 10.816406 L 35.605469 10.816406 L 35.605469 18.046875 L 65.445312 18.046875 L 65.925781 18.011719 C 67.734375 18.035156 68.621094 16.945312 68.597656 14.742188 L 68.632812 12.664062 C 68.632812 12.234375 68.382812 11.53125 68.003906 10.8125 L 70.882812 10.8125 L 70.882812 18.046875 L 74.59375 18.046875 L 74.59375 10.816406 L 95.355469 10.816406 L 100.015625 18.046875 L 103.949219 18.046875 L 98.128906 8.882812 Z M 103.949219 0.0507812 " clip-rule="nonzero"/></clipPath><clipPath id="2505267dd6"><rect x="0" width="104" y="0" height="19"/></clipPath><clipPath id="a2c96bb216"><rect x="0" width="147" y="0" height="15"/></clipPath></defs><g clip-path="url(#4862478f62)"><g clip-path="url(#d28dc885cf)"><g transform="matrix(1, 0, 0, 1, 3, 7)"><g clip-path="url(#2505267dd6)"><g clip-path="url(#9ee2dd0034)"><g clip-path="url(#bb77268612)"><path fill="#e71a15" d="M 0 0.0507812 L 103.921875 0.0507812 L 103.921875 18.050781 L 0 18.050781 Z M 0 0.0507812 " fill-opacity="1" fill-rule="nonzero"/></g></g></g></g></g></g><g transform="matrix(1, 0, 0, 1, 2, 25)"><g clip-path="url(#a2c96bb216)"><g fill="#e71a15" fill-opacity="1"><g transform="translate(1.000001, 11.207362)"><g><path d="M 6.28125 -3.34375 C 6.28125 -2.257812 5.972656 -1.429688 5.359375 -0.859375 C 4.742188 -0.285156 3.851562 0 2.6875 0 L 0.828125 0 L 0.828125 -6.5625 L 2.890625 -6.5625 C 3.960938 -6.5625 4.796875 -6.28125 5.390625 -5.71875 C 5.984375 -5.15625 6.28125 -4.363281 6.28125 -3.34375 Z M 4.828125 -3.3125 C 4.828125 -4.71875 4.207031 -5.421875 2.96875 -5.421875 L 2.21875 -5.421875 L 2.21875 -1.15625 L 2.8125 -1.15625 C 4.15625 -1.15625 4.828125 -1.875 4.828125 -3.3125 Z M 4.828125 -3.3125 "/></g></g></g><g fill="#e71a15" fill-opacity="1"><g transform="translate(7.806358, 11.207362)"><g><path d="M 4.84375 0 L 4.375 -1.5625 L 1.984375 -1.5625 L 1.5 0 L 0 0 L 2.3125 -6.59375 L 4.015625 -6.59375 L 6.34375 0 Z M 4.046875 -2.734375 C 3.597656 -4.148438 3.347656 -4.953125 3.296875 -5.140625 C 3.242188 -5.328125 3.203125 -5.472656 3.171875 -5.578125 C 3.078125 -5.191406 2.796875 -4.242188 2.328125 -2.734375 Z M 4.046875 -2.734375 "/></g></g></g><g fill="#e71a15" fill-opacity="1"><g transform="translate(14.150277, 11.207362)"><g><path d="M 6.65625 0 L 4.890625 0 L 2.03125 -4.96875 L 1.984375 -4.96875 C 2.046875 -4.09375 2.078125 -3.46875 2.078125 -3.09375 L 2.078125 0 L 0.828125 0 L 0.828125 -6.5625 L 2.578125 -6.5625 L 5.4375 -1.65625 L 5.46875 -1.65625 C 5.425781 -2.507812 5.40625 -3.109375 5.40625 -3.453125 L 5.40625 -6.5625 L 6.65625 -6.5625 Z M 6.65625 0 "/></g></g></g><g fill="#e71a15" fill-opacity="1"><g transform="translate(21.625595, 11.207362)"><g><path d="M 4.703125 -1.828125 C 4.703125 -1.234375 4.488281 -0.765625 4.0625 -0.421875 C 3.632812 -0.078125 3.039062 0.09375 2.28125 0.09375 C 1.582031 0.09375 0.960938 -0.0390625 0.421875 -0.3125 L 0.421875 -1.59375 C 0.867188 -1.394531 1.242188 -1.253906 1.546875 -1.171875 C 1.859375 -1.097656 2.140625 -1.0625 2.390625 -1.0625 C 2.691406 -1.0625 2.925781 -1.117188 3.09375 -1.234375 C 3.257812 -1.347656 3.34375 -1.519531 3.34375 -1.75 C 3.34375 -1.882812 3.304688 -2 3.234375 -2.09375 C 3.160156 -2.195312 3.050781 -2.296875 2.90625 -2.390625 C 2.769531 -2.484375 2.488281 -2.628906 2.0625 -2.828125 C 1.65625 -3.023438 1.351562 -3.207031 1.15625 -3.375 C 0.957031 -3.550781 0.796875 -3.753906 0.671875 -3.984375 C 0.554688 -4.210938 0.5 -4.484375 0.5 -4.796875 C 0.5 -5.378906 0.695312 -5.835938 1.09375 -6.171875 C 1.488281 -6.503906 2.03125 -6.671875 2.71875 -6.671875 C 3.0625 -6.671875 3.390625 -6.628906 3.703125 -6.546875 C 4.015625 -6.460938 4.335938 -6.347656 4.671875 -6.203125 L 4.21875 -5.125 C 3.875 -5.257812 3.585938 -5.351562 3.359375 -5.40625 C 3.128906 -5.46875 2.898438 -5.5 2.671875 -5.5 C 2.410156 -5.5 2.207031 -5.4375 2.0625 -5.3125 C 1.925781 -5.195312 1.859375 -5.039062 1.859375 -4.84375 C 1.859375 -4.71875 1.882812 -4.609375 1.9375 -4.515625 C 2 -4.421875 2.09375 -4.332031 2.21875 -4.25 C 2.34375 -4.164062 2.632812 -4.015625 3.09375 -3.796875 C 3.707031 -3.503906 4.128906 -3.207031 4.359375 -2.90625 C 4.585938 -2.613281 4.703125 -2.253906 4.703125 -1.828125 Z M 4.703125 -1.828125 "/></g></g></g><g fill="#e71a15" fill-opacity="1"><g transform="translate(26.689955, 11.207362)"><g><path d="M 6.109375 0 L 4.53125 0 L 2.8125 -2.765625 L 2.21875 -2.34375 L 2.21875 0 L 0.828125 0 L 0.828125 -6.5625 L 2.21875 -6.5625 L 2.21875 -3.5625 L 2.765625 -4.34375 L 4.546875 -6.5625 L 6.09375 -6.5625 L 3.796875 -3.65625 Z M 6.109375 0 "/></g></g></g><g fill="#e71a15" fill-opacity="1"><g transform="translate(32.795921, 11.207362)"><g/></g></g><g fill="#e71a15" fill-opacity="1"><g transform="translate(35.184431, 11.207362)"><g><path d="M 0.828125 -6.5625 L 2.875 -6.5625 C 3.800781 -6.5625 4.472656 -6.429688 4.890625 -6.171875 C 5.316406 -5.910156 5.53125 -5.488281 5.53125 -4.90625 C 5.53125 -4.507812 5.4375 -4.1875 5.25 -3.9375 C 5.070312 -3.6875 4.828125 -3.535156 4.515625 -3.484375 L 4.515625 -3.4375 C 4.929688 -3.34375 5.234375 -3.164062 5.421875 -2.90625 C 5.609375 -2.65625 5.703125 -2.320312 5.703125 -1.90625 C 5.703125 -1.300781 5.484375 -0.832031 5.046875 -0.5 C 4.617188 -0.164062 4.03125 0 3.28125 0 L 0.828125 0 Z M 2.21875 -3.96875 L 3.03125 -3.96875 C 3.40625 -3.96875 3.675781 -4.023438 3.84375 -4.140625 C 4.019531 -4.253906 4.109375 -4.445312 4.109375 -4.71875 C 4.109375 -4.96875 4.015625 -5.144531 3.828125 -5.25 C 3.640625 -5.363281 3.347656 -5.421875 2.953125 -5.421875 L 2.21875 -5.421875 Z M 2.21875 -2.859375 L 2.21875 -1.15625 L 3.125 -1.15625 C 3.507812 -1.15625 3.789062 -1.226562 3.96875 -1.375 C 4.15625 -1.519531 4.25 -1.742188 4.25 -2.046875 C 4.25 -2.585938 3.859375 -2.859375 3.078125 -2.859375 Z M 2.21875 -2.859375 "/></g></g></g><g fill="#e71a15" fill-opacity="1"><g transform="translate(41.362232, 11.207362)"><g><path d="M 2.875 -3.859375 L 4.234375 -6.5625 L 5.75 -6.5625 L 3.5625 -2.5625 L 3.5625 0 L 2.171875 0 L 2.171875 -2.515625 L 0 -6.5625 L 1.515625 -6.5625 Z M 2.875 -3.859375 "/></g></g></g><g fill="#e71a15" fill-opacity="1"><g transform="translate(47.100044, 11.207362)"><g><path d="M 3.328125 -3.6875 L 5.921875 -3.6875 L 5.921875 -0.28125 C 5.503906 -0.144531 5.109375 -0.0507812 4.734375 0 C 4.359375 0.0625 3.976562 0.09375 3.59375 0.09375 C 2.601562 0.09375 1.84375 -0.195312 1.3125 -0.78125 C 0.789062 -1.363281 0.53125 -2.203125 0.53125 -3.296875 C 0.53125 -4.359375 0.832031 -5.1875 1.4375 -5.78125 C 2.050781 -6.375 2.894531 -6.671875 3.96875 -6.671875 C 4.644531 -6.671875 5.296875 -6.535156 5.921875 -6.265625 L 5.453125 -5.140625 C 4.972656 -5.378906 4.472656 -5.5 3.953125 -5.5 C 3.359375 -5.5 2.878906 -5.296875 2.515625 -4.890625 C 2.148438 -4.492188 1.96875 -3.953125 1.96875 -3.265625 C 1.96875 -2.554688 2.113281 -2.007812 2.40625 -1.625 C 2.695312 -1.25 3.125 -1.0625 3.6875 -1.0625 C 3.96875 -1.0625 4.257812 -1.09375 4.5625 -1.15625 L 4.5625 -2.53125 L 3.328125 -2.53125 Z M 3.328125 -3.6875 "/></g></g></g><g fill="#e71a15" fill-opacity="1"><g transform="translate(53.758241, 11.207362)"><g><path d="M 3.328125 -3.6875 L 5.921875 -3.6875 L 5.921875 -0.28125 C 5.503906 -0.144531 5.109375 -0.0507812 4.734375 0 C 4.359375 0.0625 3.976562 0.09375 3.59375 0.09375 C 2.601562 0.09375 1.84375 -0.195312 1.3125 -0.78125 C 0.789062 -1.363281 0.53125 -2.203125 0.53125 -3.296875 C 0.53125 -4.359375 0.832031 -5.1875 1.4375 -5.78125 C 2.050781 -6.375 2.894531 -6.671875 3.96875 -6.671875 C 4.644531 -6.671875 5.296875 -6.535156 5.921875 -6.265625 L 5.453125 -5.140625 C 4.972656 -5.378906 4.472656 -5.5 3.953125 -5.5 C 3.359375 -5.5 2.878906 -5.296875 2.515625 -4.890625 C 2.148438 -4.492188 1.96875 -3.953125 1.96875 -3.265625 C 1.96875 -2.554688 2.113281 -2.007812 2.40625 -1.625 C 2.695312 -1.25 3.125 -1.0625 3.6875 -1.0625 C 3.96875 -1.0625 4.257812 -1.09375 4.5625 -1.15625 L 4.5625 -2.53125 L 3.328125 -2.53125 Z M 3.328125 -3.6875 "/></g></g></g><g fill="#e71a15" fill-opacity="1"><g transform="translate(60.416437, 11.207362)"><g><path d="M 4.609375 0 L 0.828125 0 L 0.828125 -6.5625 L 4.609375 -6.5625 L 4.609375 -5.421875 L 2.21875 -5.421875 L 2.21875 -3.984375 L 4.4375 -3.984375 L 4.4375 -2.84375 L 2.21875 -2.84375 L 2.21875 -1.15625 L 4.609375 -1.15625 Z M 4.609375 0 "/></g></g></g><g fill="#e71a15" fill-opacity="1"><g transform="translate(65.566101, 11.207362)"><g><path d="M 6.109375 0 L 4.53125 0 L 2.8125 -2.765625 L 2.21875 -2.34375 L 2.21875 0 L 0.828125 0 L 0.828125 -6.5625 L 2.21875 -6.5625 L 2.21875 -3.5625 L 2.765625 -4.34375 L 4.546875 -6.5625 L 6.09375 -6.5625 L 3.796875 -3.65625 Z M 6.109375 0 "/></g></g></g><g fill="#e71a15" fill-opacity="1"><g transform="translate(71.672067, 11.207362)"><g><path d="M 6.796875 -3.296875 C 6.796875 -2.203125 6.523438 -1.363281 5.984375 -0.78125 C 5.441406 -0.195312 4.664062 0.09375 3.65625 0.09375 C 2.65625 0.09375 1.882812 -0.195312 1.34375 -0.78125 C 0.800781 -1.363281 0.53125 -2.203125 0.53125 -3.296875 C 0.53125 -4.390625 0.800781 -5.222656 1.34375 -5.796875 C 1.882812 -6.378906 2.660156 -6.671875 3.671875 -6.671875 C 4.679688 -6.671875 5.453125 -6.378906 5.984375 -5.796875 C 6.523438 -5.210938 6.796875 -4.378906 6.796875 -3.296875 Z M 2 -3.296875 C 2 -2.554688 2.132812 -2 2.40625 -1.625 C 2.6875 -1.257812 3.101562 -1.078125 3.65625 -1.078125 C 4.769531 -1.078125 5.328125 -1.816406 5.328125 -3.296875 C 5.328125 -4.773438 4.773438 -5.515625 3.671875 -5.515625 C 3.117188 -5.515625 2.703125 -5.328125 2.421875 -4.953125 C 2.140625 -4.578125 2 -4.023438 2 -3.296875 Z M 2 -3.296875 "/></g></g></g><g fill="#e71a15" fill-opacity="1"><g transform="translate(78.990247, 11.207362)"><g><path d="M 3.609375 0 L 2.03125 -5.15625 L 1.984375 -5.15625 C 2.046875 -4.101562 2.078125 -3.40625 2.078125 -3.0625 L 2.078125 0 L 0.828125 0 L 0.828125 -6.5625 L 2.71875 -6.5625 L 4.28125 -1.546875 L 4.3125 -1.546875 L 5.953125 -6.5625 L 7.84375 -6.5625 L 7.84375 0 L 6.546875 0 L 6.546875 -3.109375 C 6.546875 -3.253906 6.546875 -3.421875 6.546875 -3.609375 C 6.554688 -3.804688 6.582031 -4.316406 6.625 -5.140625 L 6.578125 -5.140625 L 4.890625 0 Z M 3.609375 0 "/></g></g></g><g fill="#e71a15" fill-opacity="1"><g transform="translate(87.65982, 11.207362)"><g><path d="M 2.21875 -3.484375 L 2.671875 -3.484375 C 3.109375 -3.484375 3.429688 -3.566406 3.640625 -3.734375 C 3.847656 -3.898438 3.953125 -4.144531 3.953125 -4.46875 C 3.953125 -4.800781 3.863281 -5.039062 3.6875 -5.1875 C 3.507812 -5.34375 3.234375 -5.421875 2.859375 -5.421875 L 2.21875 -5.421875 Z M 5.359375 -4.515625 C 5.359375 -3.804688 5.140625 -3.265625 4.703125 -2.890625 C 4.265625 -2.523438 3.632812 -2.34375 2.8125 -2.34375 L 2.21875 -2.34375 L 2.21875 0 L 0.828125 0 L 0.828125 -6.5625 L 2.921875 -6.5625 C 3.722656 -6.5625 4.328125 -6.390625 4.734375 -6.046875 C 5.148438 -5.710938 5.359375 -5.203125 5.359375 -4.515625 Z M 5.359375 -4.515625 "/></g></g></g><g fill="#e71a15" fill-opacity="1"><g transform="translate(93.43355, 11.207362)"><g><path d="M 6.796875 -3.296875 C 6.796875 -2.203125 6.523438 -1.363281 5.984375 -0.78125 C 5.441406 -0.195312 4.664062 0.09375 3.65625 0.09375 C 2.65625 0.09375 1.882812 -0.195312 1.34375 -0.78125 C 0.800781 -1.363281 0.53125 -2.203125 0.53125 -3.296875 C 0.53125 -4.390625 0.800781 -5.222656 1.34375 -5.796875 C 1.882812 -6.378906 2.660156 -6.671875 3.671875 -6.671875 C 4.679688 -6.671875 5.453125 -6.378906 5.984375 -5.796875 C 6.523438 -5.210938 6.796875 -4.378906 6.796875 -3.296875 Z M 2 -3.296875 C 2 -2.554688 2.132812 -2 2.40625 -1.625 C 2.6875 -1.257812 3.101562 -1.078125 3.65625 -1.078125 C 4.769531 -1.078125 5.328125 -1.816406 5.328125 -3.296875 C 5.328125 -4.773438 4.773438 -5.515625 3.671875 -5.515625 C 3.117188 -5.515625 2.703125 -5.328125 2.421875 -4.953125 C 2.140625 -4.578125 2 -4.023438 2 -3.296875 Z M 2 -3.296875 "/></g></g></g><g fill="#e71a15" fill-opacity="1"><g transform="translate(100.75173, 11.207362)"><g><path d="M 6.65625 0 L 4.890625 0 L 2.03125 -4.96875 L 1.984375 -4.96875 C 2.046875 -4.09375 2.078125 -3.46875 2.078125 -3.09375 L 2.078125 0 L 0.828125 0 L 0.828125 -6.5625 L 2.578125 -6.5625 L 5.4375 -1.65625 L 5.46875 -1.65625 C 5.425781 -2.507812 5.40625 -3.109375 5.40625 -3.453125 L 5.40625 -6.5625 L 6.65625 -6.5625 Z M 6.65625 0 "/></g></g></g><g fill="#e71a15" fill-opacity="1"><g transform="translate(108.227048, 11.207362)"><g><path d="M 4.609375 0 L 0.828125 0 L 0.828125 -6.5625 L 4.609375 -6.5625 L 4.609375 -5.421875 L 2.21875 -5.421875 L 2.21875 -3.984375 L 4.4375 -3.984375 L 4.4375 -2.84375 L 2.21875 -2.84375 L 2.21875 -1.15625 L 4.609375 -1.15625 Z M 4.609375 0 "/></g></g></g><g fill="#e71a15" fill-opacity="1"><g transform="translate(113.376712, 11.207362)"><g><path d="M 6.65625 0 L 4.890625 0 L 2.03125 -4.96875 L 1.984375 -4.96875 C 2.046875 -4.09375 2.078125 -3.46875 2.078125 -3.09375 L 2.078125 0 L 0.828125 0 L 0.828125 -6.5625 L 2.578125 -6.5625 L 5.4375 -1.65625 L 5.46875 -1.65625 C 5.425781 -2.507812 5.40625 -3.109375 5.40625 -3.453125 L 5.40625 -6.5625 L 6.65625 -6.5625 Z M 6.65625 0 "/></g></g></g><g fill="#e71a15" fill-opacity="1"><g transform="translate(120.852031, 11.207362)"><g><path d="M 3.359375 0 L 1.96875 0 L 1.96875 -5.40625 L 0.1875 -5.40625 L 0.1875 -6.5625 L 5.140625 -6.5625 L 5.140625 -5.40625 L 3.359375 -5.40625 Z M 3.359375 0 "/></g></g></g><g fill="#e71a15" fill-opacity="1"><g transform="translate(126.176792, 11.207362)"><g/></g></g><g fill="#e71a15" fill-opacity="1"><g transform="translate(128.565302, 11.207362)"><g><path d="M 4.84375 0 L 4.375 -1.5625 L 1.984375 -1.5625 L 1.5 0 L 0 0 L 2.3125 -6.59375 L 4.015625 -6.59375 L 6.34375 0 Z M 4.046875 -2.734375 C 3.597656 -4.148438 3.347656 -4.953125 3.296875 -5.140625 C 3.242188 -5.328125 3.203125 -5.472656 3.171875 -5.578125 C 3.078125 -5.191406 2.796875 -4.242188 2.328125 -2.734375 Z M 4.046875 -2.734375 "/></g></g></g><g fill="#e71a15" fill-opacity="1"><g transform="translate(134.909221, 11.207362)"><g><path d="M 3.484375 0.09375 C 2.890625 0.09375 2.425781 -0.117188 2.09375 -0.546875 L 2.015625 -0.546875 C 2.066406 -0.128906 2.09375 0.109375 2.09375 0.171875 L 2.09375 2.203125 L 0.71875 2.203125 L 0.71875 -5.03125 L 1.828125 -5.03125 L 2.03125 -4.375 L 2.09375 -4.375 C 2.414062 -4.875 2.890625 -5.125 3.515625 -5.125 C 4.109375 -5.125 4.570312 -4.894531 4.90625 -4.4375 C 5.238281 -3.976562 5.40625 -3.335938 5.40625 -2.515625 C 5.40625 -1.984375 5.328125 -1.519531 5.171875 -1.125 C 5.015625 -0.726562 4.789062 -0.425781 4.5 -0.21875 C 4.207031 -0.0078125 3.867188 0.09375 3.484375 0.09375 Z M 3.078125 -4.015625 C 2.734375 -4.015625 2.484375 -3.910156 2.328125 -3.703125 C 2.171875 -3.492188 2.09375 -3.148438 2.09375 -2.671875 L 2.09375 -2.53125 C 2.09375 -1.988281 2.171875 -1.597656 2.328125 -1.359375 C 2.492188 -1.128906 2.75 -1.015625 3.09375 -1.015625 C 3.707031 -1.015625 4.015625 -1.519531 4.015625 -2.53125 C 4.015625 -3.03125 3.9375 -3.398438 3.78125 -3.640625 C 3.632812 -3.890625 3.398438 -4.015625 3.078125 -4.015625 Z M 3.078125 -4.015625 "/></g></g></g><g fill="#e71a15" fill-opacity="1"><g transform="translate(140.727848, 11.207362)"><g><path d="M 4.703125 -1.828125 C 4.703125 -1.234375 4.488281 -0.765625 4.0625 -0.421875 C 3.632812 -0.078125 3.039062 0.09375 2.28125 0.09375 C 1.582031 0.09375 0.960938 -0.0390625 0.421875 -0.3125 L 0.421875 -1.59375 C 0.867188 -1.394531 1.242188 -1.253906 1.546875 -1.171875 C 1.859375 -1.097656 2.140625 -1.0625 2.390625 -1.0625 C 2.691406 -1.0625 2.925781 -1.117188 3.09375 -1.234375 C 3.257812 -1.347656 3.34375 -1.519531 3.34375 -1.75 C 3.34375 -1.882812 3.304688 -2 3.234375 -2.09375 C 3.160156 -2.195312 3.050781 -2.296875 2.90625 -2.390625 C 2.769531 -2.484375 2.488281 -2.628906 2.0625 -2.828125 C 1.65625 -3.023438 1.351562 -3.207031 1.15625 -3.375 C 0.957031 -3.550781 0.796875 -3.753906 0.671875 -3.984375 C 0.554688 -4.210938 0.5 -4.484375 0.5 -4.796875 C 0.5 -5.378906 0.695312 -5.835938 1.09375 -6.171875 C 1.488281 -6.503906 2.03125 -6.671875 2.71875 -6.671875 C 3.0625 -6.671875 3.390625 -6.628906 3.703125 -6.546875 C 4.015625 -6.460938 4.335938 -6.347656 4.671875 -6.203125 L 4.21875 -5.125 C 3.875 -5.257812 3.585938 -5.351562 3.359375 -5.40625 C 3.128906 -5.46875 2.898438 -5.5 2.671875 -5.5 C 2.410156 -5.5 2.207031 -5.4375 2.0625 -5.3125 C 1.925781 -5.195312 1.859375 -5.039062 1.859375 -4.84375 C 1.859375 -4.71875 1.882812 -4.609375 1.9375 -4.515625 C 2 -4.421875 2.09375 -4.332031 2.21875 -4.25 C 2.34375 -4.164062 2.632812 -4.015625 3.09375 -3.796875 C 3.707031 -3.503906 4.128906 -3.207031 4.359375 -2.90625 C 4.585938 -2.613281 4.703125 -2.253906 4.703125 -1.828125 Z M 4.703125 -1.828125 "/></g></g></g></g></g></svg>